<?xml version="1.0" encoding="utf-8"?>
<!-- Generator: Adobe Illustrator 24.2.3, SVG Export Plug-In . SVG Version: 6.00 Build 0)  -->
<svg version="1.1" id="Layer_1" xmlns="http://www.w3.org/2000/svg" xmlns:xlink="http://www.w3.org/1999/xlink" x="0px" y="0px"
	 viewBox="0 0 595.28 222.42" style="enable-background:new 0 0 595.28 222.42;" xml:space="preserve">
<style type="text/css">
	.st0{fill:#FFFFFF;}
	.st1{fill:#1CB5B8;}
	.st2{fill:#F7CE3C;}
	.st3{fill:#2D4997;}
</style>
<path d="M272.09,101.21c1.98,0,3.82,0,5.66,0c1.61,0,3.22-0.05,4.83,0.02c1,0.04,1.42-0.29,1.37-1.34
	c-0.06-1.48-0.06-2.96,0.01-4.43c0.02-0.48,0.23-1.1,0.58-1.39c6.04-5.13,12.11-10.21,18.47-15.54c0.04,0.77,0.1,1.27,0.1,1.76
	c0,6.45,0.03,12.91-0.02,19.36c-0.01,1.22,0.35,1.65,1.57,1.6c2.24-0.08,4.49,0.01,6.73-0.04c0.93-0.02,1.33,0.29,1.33,1.26
	c-0.03,5.66-0.05,11.32-0.03,16.98c0,0.95-0.27,1.31-1.25,1.28c-2.34-0.06-4.68,0.02-7.02-0.04c-1.04-0.03-1.33,0.37-1.33,1.38
	c0.04,5.76-0.02,11.53,0.05,17.29c0.01,1.31-0.39,1.68-1.67,1.67c-5.32-0.06-10.64-0.06-15.95,0c-1.19,0.01-1.61-0.34-1.6-1.59
	c0.06-5.62-0.02-11.23,0.06-16.85c0.02-1.46-0.31-1.93-1.84-1.92c-11.56,0.07-23.13,0.01-34.69,0.07c-1.53,0.01-1.89-0.47-1.86-1.93
	c0.09-4.33,0-8.67,0.06-13.01c0.01-0.85,0.21-1.78,0.58-2.53c9.64-19.48,19.33-38.93,28.97-58.41c0.63-1.28,1.3-1.87,2.84-1.85
	c5.06,0.05,10.13-0.09,15.19-0.23c1.29-0.04,1.72,0.26,1.76,1.68c0.1,3.2-1.25,5.97-2.38,8.74c-3.74,9.11-7.69,18.14-11.61,27.18
	c-2.85,6.57-5.78,13.1-8.66,19.65C272.2,100.31,272.2,100.66,272.09,101.21z"/>
<path d="M146.98,92.18c5.38,0,10.66,0,15.93,0c4.09,0,8.19-0.05,12.28,0.04c4.09,0.09,6.75,2.02,7.53,5.37
	c0.21,0.9,0.23,1.85,0.23,2.78c0.02,8.57-0.13,17.15,0.06,25.71c0.14,6.66-3.37,8.38-8.38,8.61c-3.4,0.15-6.81,0.04-10.21,0.04
	c-5.77,0-11.54,0-17.44,0C146.98,120.55,146.98,106.46,146.98,92.18z M158.38,123.88c3.87,0,7.62,0,11.36,0
	c1.14,0,1.79-0.58,1.79-1.7c0.02-5.81,0.03-11.62,0.01-17.44c0-1.01-0.49-1.72-1.6-1.73c-3.83-0.02-7.66-0.01-11.56-0.01
	C158.38,109.94,158.38,116.82,158.38,123.88z"/>
<path d="M135,113.65c0,4.24,0,8.47,0,12.71c0,5.4-1.78,7.96-6.9,8.19c-7.13,0.32-14.29,0.17-21.42-0.17
	c-3.87-0.18-5.87-2.92-5.88-7.05c-0.03-9.06-0.03-18.13-0.01-27.19c0.01-4.93,2.5-7.8,7.19-7.9c6.63-0.15,13.27-0.16,19.9,0.01
	c4.73,0.12,7.11,2.97,7.12,7.95C135,104.68,135,109.17,135,113.65z M124.14,113.45c0-2.85-0.02-5.71,0.01-8.56
	c0.01-1.11-0.32-1.86-1.47-1.87c-3.17-0.02-6.34-0.02-9.5,0c-1.13,0.01-1.51,0.7-1.5,1.83c0.02,5.71,0.03,11.42,0,17.13
	c-0.01,1.32,0.54,1.91,1.75,1.91c2.99,0,5.98,0,8.96,0.01c1.3,0,1.8-0.67,1.77-2.03C124.1,119.06,124.14,116.25,124.14,113.45z"/>
<path d="M195.04,134.6c0-14.13,0-28.2,0-42.35c10.37,0,20.66,0,31.07,0c0,3.47,0,6.93,0,10.52c-6.51,0-12.96,0-19.5,0
	c0,2.02,0,3.91,0,5.94c5.59,0,11.14,0,16.78,0c0,3.07,0,6,0,9.09c-5.6,0-11.15,0-16.79,0c0,2.06,0,3.96,0,6.05
	c6.54,0,13.07,0,19.7,0c0,3.66,0,7.14,0,10.74C215.96,134.6,205.59,134.6,195.04,134.6z"/>
<path d="M88.3,92.35c0,3.51,0,6.94,0,10.55c-0.61,0-1.13,0-1.66,0c-4.83,0-9.67,0-14.5,0.01c-0.64,0-1.28,0.07-1.91,0.14
	c-0.93,0.1-1.39,0.61-1.39,1.57c0.01,5.86,0.01,11.72,0,17.59c0,1.55,1.04,1.7,2.21,1.7c5.23,0.01,10.46,0,15.69,0
	c0.53,0,1.06,0,1.67,0c0,3.66,0,7.14,0,10.83c-0.54,0-1.07,0-1.59,0c-6.71,0-13.42,0.03-20.13-0.03c-1.51-0.01-3.06-0.2-4.52-0.59
	c-3.06-0.82-4.8-3.11-4.81-6.29c-0.04-9.51-0.05-19.02,0-28.52c0.02-4.13,2.79-6.93,7.37-7.04c7.74-0.18,15.49-0.06,23.23-0.05
	C88.05,92.21,88.13,92.28,88.3,92.35z"/>
<path class="st0" d="M494.38,90.34c-0.06,0.93-0.62,1.63-1.8,1.72c-1.07,0.08-1.92-0.7-1.92-1.76c0-1.17,0.62-1.84,1.78-1.93
	C493.51,88.28,494.34,89.06,494.38,90.34z"/>
<path class="st1" d="M355.63,91.43v8.56h-9.85v34.35h-9.2V99.98h-9.85v-8.56H355.63z"/>
<path class="st1" d="M393.42,92.11v8.31h-17.32v8.99h15v8.31h-15v8.99h17.32v8.31h-27.32v-42.9H393.42z"/>
<path class="st1" d="M430.49,92.11v8.31h-17.63v8.99h15.26v8.31h-15.26v8.99h17.63v8.31h-27.8v-42.9H430.49z"/>
<path class="st1" d="M464.67,92.11h9.3v42.9h-7.93l-15.31-24.99v24.99h-9.23v-42.9h7.93l15.24,24.99V92.11z"/>
<path class="st2" d="M517.54,108.64c-0.57,0.23-1.21,0.36-1.94,0.35c-9.94-0.05-19.84-0.84-29.72-1.85c0.27,0.68,0.57,1.36,0.8,2.05
	c0.97,2.96,2.56,5.11,5.55,5.77c2.32,0.52,5.16,0.37,7.57,0.46c1.36,0.05,2.74-0.2,4.08-0.06c1.35,0.13,2.41,0.95,2.7,2.34
	c0.35,1.69-0.53,2.9-1.82,3.88c-2.02,1.54-4.41,1.33-6.63,1.05c-3.67-0.45-7.31-1.24-10.93-2.05c-1.98-0.44-3.46,0.24-3.77,2.25
	c-0.16,1-0.1,2.05-0.1,3.07l0,0c0,0.83-0.05,1.67,0.01,2.49c0.22,2.91,1.29,3.11,3.73,4.71c2.43,1.6,4.75,1.99,8.81,2.19
	c0.36,0.02,1.42,0.02,1.8,0c1.16-0.07,1.77-0.01,2.73-0.17c2.01-0.34,3.58-0.62,5.82-1.47c2.43-0.92,4.73-2.28,6.91-3.73
	c2.86-1.91,4.92-4.58,5.93-7.94c1.17-3.86,0.94-7.73-0.56-11.42C518.21,109.94,517.89,109.28,517.54,108.64z M488.5,127.42
	c-0.63-0.75-0.75-0.71-0.69-1.14c0.07-0.54-0.73-0.86-0.19-0.95c0.4-0.07,1.35,0.77,1.34,1.19
	C488.95,127.08,489.09,126.6,488.5,127.42z"/>
<circle class="st0" cx="488.62" cy="126.28" r="2.03"/>
<path class="st3" d="M519.4,113.57c-1.84-0.4-3.76-0.82-5.29-1.09c-6.34-1.12-12.59-0.59-18.8,1.04c-1.61,0.42-3.35,0.54-5.02,0.48
	c-0.66-0.02-1.47-0.8-1.89-1.44c-1.97-2.97-3.24-6.34-3.16-9.84c0.05-2.41,0.94-4.99,2.08-7.17c2.72-5.17,7.51-7.4,12.99-8.88
	c3.91-1.06,7.89-0.95,11.78-1.74c1.82-0.37,3.57,1.03,3.8,2.83c0.19,1.45,0.38,2.9,0.55,4.35c0.19,1.62-1.11,3.09-3.11,3.43
	c-1.15,0.2-2.31,0.32-3.45,0.5c-2.8,0.44-5.29,0.51-7.9,1.01c-1.67,0.32-2.91,1.19-3.75,2.49c-1.12,1.73,0.12,3.97,2.27,4.16
	c1.39,0.13,2.82,0.06,4.21-0.1c3.96-0.44,7.73-0.11,10.77,2.79C517.41,108.21,518.94,110.6,519.4,113.57z M510.14,90.83
	c0.89-0.12,1.57-0.69,1.59-1.87c0.02-1.06-0.78-1.86-1.85-1.8c-1.15,0.06-1.79,0.7-1.82,1.86
	C508.04,90.09,508.84,90.86,510.14,90.83z"/>
</svg>
