<svg id="Layer_1" data-name="Layer 1" xmlns="http://www.w3.org/2000/svg" viewBox="0 0 1920 1080"><defs><style>.cls-1{fill:#030303;}.cls-2{fill:#2cb6b9;}.cls-3{fill:#020202;}.cls-4{fill:#040303;}</style></defs><title>Artboard 1</title><path class="cls-1" d="M1050.79,573.51c-2.17.09-3.66.2-5.15.2-7.55,0-15.1,0-22.64,0-1.47,0-3-.38-4.36.84-.84,1.53-.47,3.24-.47,4.88q0,28.44,0,56.87c0,5.06,0,5.09-5,5.09q-27.67,0-55.36,0c-1.48,0-3,.33-4.38-.71-.86-1.57-.47-3.28-.47-4.93q0-28.18,0-56.36c0-5.84,0-5.7-5.89-5.69q-59.13,0-118.27,0c-2,0-4,.4-6.19-.6a13.65,13.65,0,0,1-.53-2.72c0-16.11,0-32.21-.06-48.31a11.08,11.08,0,0,1,1.48-5.25c2.76-5.36,5.55-10.71,8.29-16.08q7.07-13.89,14.1-27.79,13.8-27.37,27.58-54.75c6.42-12.69,12.92-25.34,19.37-38Q909,348.43,925.2,316.66c.23-.45.5-.87.91-1.6a23.38,23.38,0,0,1,3.18-.49c3-.07,6,0,9.06,0,2.17,0,4.33.18,6.44-.73a7.92,7.92,0,0,1,3-.27q19.62,0,39.25,0c.82,0,1.64.14,2.73.23a21.12,21.12,0,0,1,.51,2.92c.25,9.52.24,9.52-3.16,19.08-2.14,6-4.1,12.05-6.41,18-2.55,6.52-5.34,13-8.16,19.37-3.64,8.28-7.41,16.51-11.13,24.75-6.33,14-12.71,28.05-19,42.1-7.19,16-14.28,32.11-21.47,48.14-2.39,5.34-4.91,10.62-7.43,15.89-.59,1.23-1.25,2.38-.65,4.13a10.77,10.77,0,0,0,2.57.59c11.24,0,22.48,0,33.72,0a4.4,4.4,0,0,0,2-.16,3.25,3.25,0,0,0,1.63-1.66,13.47,13.47,0,0,0,.21-3.49c0-5.53,0-11.06,0-17,6.75-6,14.11-11.55,21.13-17.48s14.4-12.05,21.73-17.91c7.16-5.72,14.21-11.56,21.26-17.48,1.64,1.64,1.06,3.23,1.06,4.64q.06,32.2,0,64.41c0,1.34,0,2.69.08,4a2.05,2.05,0,0,0,1.94,2,34.32,34.32,0,0,0,3.52.1c7.38,0,14.76,0,22.14,0,1.47,0,3-.39,4.67.85a8.39,8.39,0,0,1,.47,2.1C1050.61,532.13,1051.17,552.55,1050.79,573.51Z"/><path class="cls-2" d="M1182.49,475.29H1223a25.89,25.89,0,0,1,.87,2.76q3.48,17.49,6.93,35,5.13,25.88,10.32,51.75a40.85,40.85,0,0,0,1.41,4.15c5-31.72,9.91-62.45,14.8-93.3,4.12-1,8.14-.42,12.11-.53s7.72-.08,11.57,0,8-.42,12,.4a6.24,6.24,0,0,1,.18,1.65q-13.76,72.6-27.59,145.17a4.27,4.27,0,0,1-.73,1.25c-5.3.58-43.46.46-47.58-.2-2.51-14.53-5.09-29.17-7.58-43.83-2.46-14.49-4.84-29-7.44-44.64-2.19,6.69-2.56,12.55-3.63,18.26-1.11,5.93-2,11.89-3,17.84-1,5.78-2,11.56-3,17.34-1,5.94-2.14,11.87-3.2,17.8-1,5.75-2,11.5-3.1,17.39-1,.14-1.84.34-2.64.37-11.11.39-40.65.12-44.72-.39a2.17,2.17,0,0,1-.37-.31,1.22,1.22,0,0,1-.2-.45c-.26-1-.56-1.94-.75-2.93q-13.2-70.9-26.37-141.82a6.52,6.52,0,0,1-.1-1,2.07,2.07,0,0,1,0-.5,3,3,0,0,1,.15-.48,4.37,4.37,0,0,1,.22-.43c3.59-.63,31.09-.77,36.82-.15a16.48,16.48,0,0,1,.86,2.68q3.51,23.87,6.95,47.75c1.81,12.61,3.56,25.23,5.38,37.83.21,1.46.67,2.88,1.3,5.45C1169.81,537.19,1176.11,506.26,1182.49,475.29Z"/><path class="cls-1" d="M488.27,623.52V482.35c1.08-.11,2-.29,3-.29q45,0,90.06,0a39.42,39.42,0,0,1,13.33,2.21c9.14,3.24,14.08,9.84,15,19.47.14,1.5.15,3,.15,4.52q0,45,0,90.06a31.1,31.1,0,0,1-1.11,9.45A19.09,19.09,0,0,1,600,619a29.32,29.32,0,0,1-10.8,3.87,73,73,0,0,1-10,.81q-43.27.09-86.54,0C491.32,623.73,490,623.61,488.27,623.52ZM527.1,517.81c-.6,5.28-.53,65.54,0,69.91a15.18,15.18,0,0,0,1.84.22c11.72,0,23.45-.05,35.17,0,6.17,0,7.36-2.61,7.32-7.59-.15-18.42-.06-36.84-.07-55.26a23.23,23.23,0,0,0-.1-3,4.22,4.22,0,0,0-3.38-3.89,23.06,23.06,0,0,0-5-.55c-10.89,0-21.78,0-32.66,0C529.32,517.65,528.34,517.74,527.1,517.81Z"/><path class="cls-3" d="M447.54,553.47c0,14.75,0,29.51-.05,44.27a42.65,42.65,0,0,1-.95,9c-1.58,7.09-6.05,11.78-12.79,14.35a43.17,43.17,0,0,1-15.28,2.65c-21.13.09-42.26.12-63.38,0a56,56,0,0,1-11.92-1.6c-9.56-2.15-16.72-9.37-17.3-21.27,0-.84,0-1.67,0-2.51q0-44.78,0-89.55a46.31,46.31,0,0,1,.31-5.52c1.4-11.22,8.7-17.95,18.93-20.05a50.6,50.6,0,0,1,10-1c21.3-.1,42.6-.05,63.89-.05a41.1,41.1,0,0,1,14.27,2.56c7.18,2.62,11.7,7.69,13.31,15.12a46.15,46.15,0,0,1,1,9.46C447.59,524,447.54,538.71,447.54,553.47Zm-38.22-.77c0-9.22-.13-18.45.05-27.67.09-4.61-.95-7.23-7.1-7.39H372.08c-6.15,0-8,2-7.92,8.19.13,17.95,0,35.89,0,53.84a27.63,27.63,0,0,0,.05,3c.35,3.27,1.87,4.79,5.09,5.17a19.32,19.32,0,0,0,2,.1c10.23,0,20.46-.05,30.7,0,6.43,0,7.42-2.84,7.32-7.6C409.18,571.16,409.32,561.93,409.32,552.7Z"/><path class="cls-2" d="M1319.27,549.46V502.67a38.18,38.18,0,0,1,1.3-11.45c2.51-8.09,7.91-13.1,16.1-15a44.26,44.26,0,0,1,9.46-1.08q27.42-.15,54.84,0a40.25,40.25,0,0,1,9,1c9.37,2.25,15.27,8.09,17.08,17.65a52.12,52.12,0,0,1,.88,9.49q.09,46.8,0,93.58a43,43,0,0,1-1.38,10.94c-1.84,7.07-6.46,11.59-13.17,14.07a33.82,33.82,0,0,1-11.84,2c-8.72,0-17.44,0-26.16,0-9.56,0-19.12.06-28.68,0a63,63,0,0,1-9-.86c-11.1-1.75-17-9.37-18.23-19.76a63.45,63.45,0,0,1-.23-7Q1319.26,572.86,1319.27,549.46Zm34.14-.19q0,14.31,0,28.64a45.1,45.1,0,0,0,.18,4.51,3.94,3.94,0,0,0,3.07,3.59,18.42,18.42,0,0,0,4.45.52c8.21.05,16.41,0,24.62,0a20.1,20.1,0,0,0,3-.11,5.18,5.18,0,0,0,4.87-4.93,29.8,29.8,0,0,0,.11-4q0-27.9,0-55.79c0-.84,0-1.67,0-2.51-.23-4.84-1.91-6.46-6.87-6.67-.33,0-.67,0-1,0-8.21,0-16.42,0-24.63,0-6.5.05-7.79,1.41-7.81,8.08C1353.39,530.17,1353.41,539.72,1353.41,549.27Z"/><path class="cls-2" d="M1464.47,623.85V475.91c1.79-1.33,3.7-.76,5.48-.77q28.17-.08,56.35,0c6,0,12.08-.07,18.12,0a71.41,71.41,0,0,1,8,.71c10.39,1.39,18.34,8.75,19.69,20.94a46.75,46.75,0,0,1,.25,5c0,8.55.08,17.11,0,25.66a41.75,41.75,0,0,1-.9,8,17.24,17.24,0,0,1-10.05,12.43c-1,.48-2,1-3.54,1.77,2,.94,3.49,1.56,4.9,2.3,5.21,2.74,8.63,6.86,9.51,12.79a53.94,53.94,0,0,1,.72,7.49c.08,10.73,0,21.47,0,32.2v18.94a7,7,0,0,1-2,.53c-9.9,0-19.79,0-29.69,0a9.37,9.37,0,0,1-1.34-.33,13,13,0,0,1-1-3,64.88,64.88,0,0,1-.25-6.54c0-13.25,0-26.5,0-39.75a27.15,27.15,0,0,0-.2-4.51c-.47-2.78-1.93-4-4.73-4.35a16.81,16.81,0,0,0-2-.07q-15.09,0-30.19,0c-.82,0-1.63.13-2.51.21-1.06,1.82-.63,3.7-.63,5.48,0,15.77,0,31.53,0,47.3,0,1.64-.13,3.29-.21,5.24-5.73.63-11.22.25-16.7.3S1470.52,624,1464.47,623.85ZM1499,533.3a22.37,22.37,0,0,0,2.29.24q15.54,0,31.09,0c.67,0,1.34,0,2-.11a4.32,4.32,0,0,0,3.92-3.36,10.82,10.82,0,0,0,.4-3c.06-2.51-.08-5,0-7.52.3-6-2-8.19-8-8.13-9.53.1-19.06,0-28.58,0a26.78,26.78,0,0,0-3.31.38C1498.21,516.47,1498.26,529,1499,533.3Z"/><path class="cls-1" d="M689.68,537.1c3.05.32,6.21.1,9.35.14s6,0,9.06,0H746a14.35,14.35,0,0,1,.47,2.49q0,12.33,0,24.66c0,.8-.15,1.6-.25,2.62-6.38.56-12.55.18-18.72.25-6.37.07-12.75,0-19.12,0H689.86c-.92,3.34-1.09,12.29-.4,20.4,1.38.09,2.82.26,4.27.26q28.44,0,56.87,0h4.89a7,7,0,0,1,.58,1.73q.06,16.11,0,32.21a5.44,5.44,0,0,1-.42,1.37c-3.81.59-99.38.71-104.72.12a10.41,10.41,0,0,1-.34-1.88c0-46.29,0-92.57,0-138.49.4-.49.47-.65.6-.72a.87.87,0,0,1,.48-.14l102.66,0c.29,0,.58.25.87.38.56,3.87.69,28.23.17,34.07-1.3,1-2.86.58-4.31.59q-28.19,0-56.37,0h-4.89C689,521,688.88,532.1,689.68,537.1Z"/><path class="cls-2" d="M1609.56,475.7c3.83-.72,27.92-.85,33.26-.2,1.2,1.42.67,3.16.67,4.77,0,15.77,0,31.53,0,47.29,0,1.62.09,3.24.14,5,1.63-.33,1.92-1.59,2.49-2.5,8.27-13.41,16.49-26.85,24.77-40.25,3-4.84,6.09-9.6,9.06-14.26,4.08-.51,31.65-.64,38.76-.19a13.28,13.28,0,0,1-1,2.65c-3.64,5.63-7.35,11.21-11,16.83q-13.15,20.24-26.27,40.49c-.91,1.4-1.77,2.83-2.82,4.52q7.89,14,15.95,27.84c5.32,9.12,10.64,18.24,15.87,27.42s11.08,18.27,16.18,28.14a9,9,0,0,1-2.12.66q-19.36,0-38.74,0a7.21,7.21,0,0,1-1.39-.39c-1.78-3.2-3.73-6.69-5.66-10.2q-12.23-22.24-24.45-44.5c-2.59-4.7-5.26-9.35-7.9-14-.3-.53-.69-1-1.44-2.11a15.24,15.24,0,0,0-.43,4.92c0,1.67,0,3.35,0,5v51.31c0,1.68,0,3.36,0,5,0,1.47-.15,2.94-.25,4.72-3.88.53-7.54.2-11.18.26s-7.37,0-11.06,0h-11.27c-.23-1.2-.5-2.12-.58-3.05-.09-1.17,0-2.35,0-3.52q0-67.92,0-135.84C1609.16,479.57,1608.83,477.55,1609.56,475.7Z"/><path class="cls-4" d="M290.36,482.38V517c-1.51,1.09-3.23.63-4.82.63-17.12,0-34.23,0-51.34,0a33.42,33.42,0,0,0-6,.52,4,4,0,0,0-3.4,3.85,29.35,29.35,0,0,0-.15,3.51q0,27.18,0,54.36a29.51,29.51,0,0,0,.13,3.52,4.45,4.45,0,0,0,4.17,4.29,36.46,36.46,0,0,0,5,.21h56.18c.29.58.58.87.58,1.17q.09,16.1.13,32.2a17.92,17.92,0,0,1-.32,2.2c-1.24.08-2.36.21-3.48.21H216.59A53.64,53.64,0,0,1,202.66,622c-9.35-2.5-14.89-8.8-16.1-18.38a50.85,50.85,0,0,1-.41-6.52q0-43.79,0-87.58a50.1,50.1,0,0,1,.6-8c1.43-8.74,6.43-14.67,14.86-17.29a41.65,41.65,0,0,1,11.84-2c25-.18,50-.1,75-.1A15,15,0,0,1,290.36,482.38Z"/></svg>